<?xml version="1.0" encoding="UTF-8" standalone="no"?>
<!-- Created with Inkscape (http://www.inkscape.org/) -->

<svg
   width="210mm"
   height="297mm"
   viewBox="0 0 210 297"
   version="1.1"
   id="svg1177"
   inkscape:version="1.2.1 (9c6d41e410, 2022-07-14)"
   sodipodi:docname="title.svg"
   xmlns:inkscape="http://www.inkscape.org/namespaces/inkscape"
   xmlns:sodipodi="http://sodipodi.sourceforge.net/DTD/sodipodi-0.dtd"
   xmlns:xlink="http://www.w3.org/1999/xlink"
   xmlns="http://www.w3.org/2000/svg"
   xmlns:svg="http://www.w3.org/2000/svg">
  <sodipodi:namedview
     id="namedview1179"
     pagecolor="#ffffff"
     bordercolor="#000000"
     borderopacity="0.25"
     inkscape:showpageshadow="2"
     inkscape:pageopacity="0.0"
     inkscape:pagecheckerboard="0"
     inkscape:deskcolor="#d1d1d1"
     inkscape:document-units="mm"
     showgrid="false"
     inkscape:zoom="2.9825758"
     inkscape:cx="347.01549"
     inkscape:cy="420.44196"
     inkscape:window-width="1920"
     inkscape:window-height="1017"
     inkscape:window-x="-8"
     inkscape:window-y="-8"
     inkscape:window-maximized="1"
     inkscape:current-layer="layer1" />
  <defs
     id="defs1174">
    <linearGradient
       inkscape:collect="always"
       id="linearGradient22182">
      <stop
         style="stop-color:#ffcc00;stop-opacity:1"
         offset="0"
         id="stop22178" />
      <stop
         style="stop-color:#554400;stop-opacity:1"
         offset="1"
         id="stop22180" />
    </linearGradient>
    <inkscape:path-effect
       effect="bend_path"
       id="path-effect10211"
       is_visible="true"
       lpeversion="1"
       bendpath="m 84.855226,102.54522 c 13.563997,-3.489665 27.550554,-2.854525 41.782584,0"
       prop_scale="1"
       scale_y_rel="false"
       vertical="false"
       hide_knot="false"
       bendpath-nodetypes="cc" />
    <inkscape:path-effect
       effect="bend_path"
       id="path-effect10199"
       is_visible="true"
       lpeversion="1"
       bendpath="m 84.855226,102.54522 c 13.563997,-3.489665 27.550554,-2.854525 41.782584,0"
       prop_scale="1"
       scale_y_rel="false"
       vertical="false"
       hide_knot="false"
       bendpath-nodetypes="cc" />
    <inkscape:path-effect
       effect="bend_path"
       id="path-effect9452"
       is_visible="true"
       lpeversion="1"
       bendpath="m 84.855226,102.54522 c 13.563997,-3.489665 27.550554,-2.854525 41.782584,0"
       prop_scale="1"
       scale_y_rel="false"
       vertical="false"
       hide_knot="false"
       bendpath-nodetypes="cc" />
    <inkscape:path-effect
       effect="bend_path"
       id="path-effect5052"
       is_visible="true"
       lpeversion="1"
       bendpath="m 84.855226,102.54522 c 13.563997,-3.489665 27.550554,-2.854525 41.782584,0"
       prop_scale="1"
       scale_y_rel="false"
       vertical="false"
       hide_knot="false"
       bendpath-nodetypes="cc" />
    <inkscape:path-effect
       effect="bend_path"
       id="path-effect4306"
       is_visible="true"
       lpeversion="1"
       bendpath="m 84.855226,102.54522 c 13.563997,-3.489665 27.550554,-2.854525 41.782584,0"
       prop_scale="1"
       scale_y_rel="false"
       vertical="false"
       hide_knot="false"
       bendpath-nodetypes="cc" />
    <linearGradient
       inkscape:collect="always"
       xlink:href="#linearGradient22182"
       id="linearGradient22184"
       x1="107.00471"
       y1="91.755341"
       x2="107.00471"
       y2="112.29163"
       gradientUnits="userSpaceOnUse" />
  </defs>
  <g
     inkscape:label="Réteg 1"
     inkscape:groupmode="layer"
     id="layer1">
    <g
       id="g22205">
      <path
         id="path10189"
         style="font-size:21.2334px;line-height:0.8;font-family:Slackey;-inkscape-font-specification:Slackey;text-align:center;text-anchor:middle;fill:#2b2200;fill-opacity:1;fill-rule:evenodd;stroke:#2b2200;stroke-width:3.3;stroke-linecap:round;stroke-linejoin:round;stroke-dasharray:none;paint-order:stroke fill markers"
         d="m 95.315374,93.121314 c -4.161967,0.184474 -8.304937,0.839611 -12.313456,1.97714 1.28279,5.058766 2.648996,10.098156 3.765145,15.197516 0.120902,0.57768 5.400103,-0.31418 5.427965,-0.98377 0.05629,-1.73982 -2.173085,-5.13777 0.462025,-6.09543 2.530047,-0.0804 0.696988,-3.596806 -1.062984,-3.417604 -1.054963,0.597434 -1.679279,-0.322998 -0.28761,-0.51994 1.795198,-0.49391 4.881413,0.19778 5.282165,-2.297152 -0.390112,-1.280127 -0.437778,-2.594338 -1.27325,-3.86076 z m 19.349116,2.035866 c -0.53369,2.248627 -0.85807,4.250933 -0.65649,6.55577 -0.0496,2.09188 -1.45144,5.58053 -0.36201,6.03941 1.43384,0.56426 3.70232,0.85669 4.12165,-1.83693 0.3208,-1.99982 0.41633,-5.15365 2.51444,-5.25232 0.40611,1.32112 4.02041,2.49842 5.6634,1.32309 1.31664,-0.95667 1.73549,-2.927055 0.64297,-4.213066 -0.89606,-1.000468 -3.44758,-1.584547 -5.10938,-0.943648 -1.04348,0.450027 -2.46865,0.862079 -2.38291,-0.725166 -1.11747,-1.262767 -3.61117,-1.35753 -4.43167,-0.94714 z m -14.66361,-0.05149 c -2.834325,-0.106631 -2.122451,2.527306 -1.912472,4.05447 0.240102,2.33668 -0.314473,5.09116 1.314918,6.96817 1.629394,1.87701 5.200304,1.59189 7.261974,0.38969 2.06167,-1.2022 1.24425,2.51669 4.35966,0.85483 3.11541,-1.66186 0.877,-3.75296 1.03645,-5.6613 -0.005,-1.800805 -0.0702,-3.602165 -0.005,-5.402597 -0.74202,-2.310199 -4.43363,-1.716763 -4.29648,-0.08955 0.24289,3.987273 0.065,5.207883 -1.87142,5.572913 -2.62189,0.52705 -3.66739,-0.36865 -3.85486,-3.694083 -0.15911,-2.404924 0,-2.941058 -2.03228,-2.992551 z"
         sodipodi:nodetypes="ccccccccccccccccccccczzzccccccc" />
      <g
         aria-label="Fur"
         id="g5048"
         style="font-size:21.2334px;line-height:0.8;font-family:Slackey;-inkscape-font-specification:Slackey;text-align:center;text-anchor:middle;fill:#554400;fill-opacity:1;fill-rule:evenodd;stroke-width:1.50472;stroke-linecap:round;stroke-linejoin:round;paint-order:stroke fill markers;stop-color:#000000"
         transform="matrix(0.9395674,0,0,0.9395674,6.3450629,7.1984111)"
         inkscape:path-effect="#path-effect5052"
         class="UnoptimicedTransforms">
        <path
           d="m 96.039431,96.968748 c -1.251034,0.187785 -2.483911,0.388013 -3.700292,0.600334 -1.201853,0.210281 -2.409226,0.483747 -3.615629,0.822801 0.167271,0.571586 0.333207,1.143453 0.497811,1.715597 1.170546,-0.141034 2.34135,-0.2541 3.511857,-0.340592 0.290664,0.654812 0.576212,1.311072 0.856703,1.968742 -0.594984,0.21718 -1.195844,0.41493 -1.804418,0.59424 -0.59718,0.16357 -1.187113,0.36176 -1.767573,0.5944 0.320024,0.99202 0.594155,1.99284 0.827457,3.0008 0.230905,0.99453 0.435047,2.00068 0.615917,3.0182 -1.600373,0.3516 -3.178813,0.76542 -4.731644,1.24604 -0.345768,-1.58228 -0.706825,-3.14453 -1.089561,-4.68796 -0.386051,-1.55632 -0.7794,-3.11822 -1.181305,-4.68468 l -0.458616,-1.787499 -1.035755,-4.03695 c 0.869788,-0.231276 1.726842,-0.444124 2.569613,-0.640142 0.855144,-0.212812 1.722561,-0.399896 2.600941,-0.560752 1.181288,-0.216327 2.368681,-0.380025 3.558477,-0.491704 1.187903,-0.125318 2.383002,-0.220175 3.584458,-0.284715 0.155672,0.649024 0.30239,1.30598 0.440641,1.970843 0.151738,0.649727 0.257686,1.310874 0.320918,1.982997 z"
           id="path5042"
           style="fill:#554400;fill-opacity:1"
           inkscape:original-d="m 96.591659,98.926832 q -1.80401,0.103679 -3.566548,0.165886 -1.741802,0.06221 -3.525076,0.228093 l 0.165886,1.783279 3.442133,0.22809 0.580601,2.07357 q -0.933109,0.20736 -1.886953,0.33177 -0.933108,0.10368 -1.866217,0.2903 0.207358,1.55519 0.290301,3.11037 0.08294,1.53444 0.08294,3.08962 l -5.4535,0.18662 q 0.103678,-2.42608 0.124414,-4.81069 0.02074,-2.40534 0.02074,-4.83143 v -1.845478 -4.167884 q 1.202673,-0.02074 2.363874,-0.04147 1.181938,-0.04147 2.384611,-0.04147 1.617388,0 3.234776,0.08294 1.617388,0.06221 3.255511,0.14515 0.124415,0.995316 0.228093,2.011367 0.124415,0.995316 0.124414,2.011367 z" />
        <path
           d="m 111.79116,106.75272 c -1.11191,-0.0414 -2.22088,-0.0646 -3.32591,-0.0684 -0.0471,-0.70198 -0.0959,-1.40386 -0.14648,-2.10566 -0.26867,0.34836 -0.58539,0.64008 -0.94985,0.87658 -0.35132,0.23699 -0.73105,0.4263 -1.14007,0.56916 -0.39595,0.14316 -0.80831,0.24691 -1.23848,0.31215 -0.41706,0.0515 -0.82619,0.0784 -1.22863,0.0805 -0.3122,0.002 -0.70029,-0.0223 -1.16885,-0.0685 -0.45509,-0.0464 -0.92357,-0.10956 -1.40706,-0.18855 -0.47096,-0.0932 -0.9118,-0.21097 -1.323715,-0.35472 -0.411923,-0.14377 -0.71689,-0.31772 -0.914492,-0.52605 -0.154564,-0.15565 -0.284033,-0.40949 -0.3884,-0.76139 -0.09217,-0.36659 -0.166993,-0.75522 -0.223646,-1.16564 -0.05667,-0.41055 -0.09935,-0.8081 -0.12747,-1.19305 -0.02811,-0.3849 -0.0507,-0.69419 -0.06777,-0.92788 -0.07531,-1.0311 -0.108391,-2.051117 -0.09473,-3.061053 0.01366,-1.009872 0.06645,-2.015396 0.162012,-3.016916 0.409934,-0.06964 0.851487,-0.117915 1.32355,-0.143474 0.383583,-0.02077 0.768587,-0.01158 1.153987,0.0276 0.38487,0.0254 0.76972,0.06699 1.1541,0.124764 0.002,0.06934 0.0147,0.26847 0.0383,0.599531 0.0236,0.330707 0.0487,0.72352 0.0754,1.17843 0.041,0.454514 0.0825,0.943555 0.12435,1.467146 0.0416,0.509785 0.0817,0.985116 0.12068,1.425996 0.0529,0.440525 0.10359,0.819015 0.15242,1.135465 0.0623,0.30234 0.1208,0.46675 0.17633,0.4932 0.20856,0.1199 0.43569,0.18492 0.68252,0.19547 0.24685,0.0105 0.48667,0.0153 0.71971,0.0141 0.16649,-8.6e-4 0.41606,-0.009 0.76103,-0.0214 0.35675,-0.0265 0.7208,-0.0578 1.09245,-0.0937 0.37197,-0.0497 0.71696,-0.10457 1.03568,-0.16557 0.31905,-0.0748 0.53573,-0.16455 0.64996,-0.27169 0.0428,-0.0401 0.0747,-0.17059 0.0958,-0.39135 0.035,-0.22029 0.0571,-0.46186 0.0658,-0.72454 0.0227,-0.262297 0.0379,-0.503952 0.0453,-0.725227 0.022,-0.234769 0.0337,-0.372461 0.0351,-0.414117 0.021,-0.622248 0.0276,-1.237967 0.019,-1.847304 2.3e-4,0.01596 -0.0268,-1.864596 -0.0265,-1.848632 1.42513,-0.01884 2.85057,-0.008 4.27478,0.03077 0.0176,0.973481 0.0255,1.946519 0.0245,2.918942 -7e-5,0.958662 0.0188,1.92573 0.0549,2.9014 0.017,0.32099 0.0123,0.64723 -0.0135,0.97879 2e-5,-6.8e-4 -0.0367,0.99858 -0.0367,0.9979 -0.0215,0.62379 -0.0571,1.2465 -0.10605,1.86813 2.4e-4,-0.004 -0.10939,1.89302 -0.10915,1.88883 0,0 -10e-6,0 -10e-6,0 z"
           id="path5044"
           style="fill:#554400;fill-opacity:1"
           inkscape:original-d="m 112.39229,108.79705 -3.50434,0.14515 -0.24883,-2.09431 q -0.39397,0.53913 -0.95384,0.91237 -0.53913,0.37324 -1.18194,0.60134 -0.62207,0.22809 -1.30635,0.33177 -0.66354,0.0829 -1.30635,0.0829 -0.49766,0 -1.24414,-0.0829 -0.72576,-0.0829 -1.49298,-0.2281 -0.74648,-0.16588 -1.389293,-0.41471 -0.642808,-0.24883 -0.933108,-0.5806 -0.228093,-0.24883 -0.352508,-0.78796 -0.103679,-0.55987 -0.14515,-1.18194 -0.04147,-0.62207 -0.04147,-1.20267 0,-0.5806 0,-0.93311 0,-1.55518 0.124415,-3.06889 0.124414,-1.513708 0.352507,-3.006681 0.580601,-0.06221 1.244147,-0.06221 0.53913,0 1.07825,0.08294 0.53913,0.06221 1.07826,0.165886 0,0.103679 0.0207,0.601337 0.0207,0.497658 0.0415,1.181937 0.0415,0.68428 0.0829,1.472241 0.0415,0.76722 0.083,1.43077 0.0622,0.66354 0.12441,1.14046 0.0829,0.45619 0.16589,0.49766 0.31103,0.18662 0.68428,0.20736 0.37324,0.0207 0.72575,0.0207 0.24883,0 0.76722,-0.0207 0.53913,-0.0415 1.09899,-0.10368 0.55987,-0.0829 1.03679,-0.18662 0.47692,-0.12442 0.64281,-0.2903 0.0622,-0.0622 0.0829,-0.39398 0.0415,-0.33178 0.0415,-0.72576 0.0207,-0.39398 0.0207,-0.72575 0.0207,-0.35251 0.0207,-0.41472 0,-0.93311 -0.0415,-1.845474 -0.0415,-0.912372 -0.0829,-1.845481 l 4.02273,-0.186621 q 0.12442,1.451501 0.2281,2.902996 0.10368,1.43077 0.26956,2.88227 0.0622,0.47692 0.0622,0.97458 0.0207,0.49766 0.0415,0.99533 0.0415,0.93309 0.0415,1.8662 0.0207,0.93311 0.0415,1.88696 z" />
        <path
           d="m 126.82125,101.11211 -0.0935,0.46771 c -1.34064,-0.20542 -2.68578,-0.39138 -4.03389,-0.55611 0.0716,-0.17055 0.12714,-0.37196 0.16645,-0.60416 0.0578,-0.34157 0.046,-0.568356 -0.036,-0.680634 -0.0796,-0.125861 -0.28783,-0.217311 -0.6247,-0.272441 -0.47713,-0.07808 -1.01778,-0.07952 -1.61848,-0.0017 -0.60038,0.07775 -1.12914,0.163768 -1.58447,0.254926 -0.1533,0.5948 -0.29153,1.19174 -0.41531,1.79067 -0.12378,0.59895 -0.2262,1.20081 -0.3082,1.80544 l -0.27394,2.02 c 4.8e-4,-0.004 -0.23219,2.00897 -0.2317,2.00473 -1.14073,-0.0776 -2.27941,-0.13856 -3.41489,-0.18164 0.0267,-0.88949 0.0509,-1.77215 0.0729,-2.64801 0.0234,-0.88962 0.0518,-1.77869 0.0857,-2.66707 0.0494,-1.17947 0.0752,-2.354258 0.0756,-3.524351 0.002,-1.183883 4.4e-4,-2.374789 -0.004,-3.572658 0.83102,0.133996 1.64909,0.304057 2.45273,0.50914 0.81986,0.19301 1.63243,0.422142 2.43639,0.686779 -0.11534,0.572034 -0.23019,1.144158 -0.34454,1.716371 0.47298,-0.271254 0.92114,-0.494679 1.34219,-0.670971 0.43748,-0.187939 0.87078,-0.332363 1.29867,-0.433485 0.44226,-0.09886 0.89957,-0.144029 1.37047,-0.135114 0.47313,-0.0048 0.98991,0.04259 1.54829,0.143424 0.37226,0.06722 0.75101,0.179514 1.13507,0.336933 0.38664,0.143827 0.69576,0.380406 0.92635,0.707936 0.11268,0.17738 0.18899,0.425236 0.22881,0.743467 0.0398,0.318231 0.0538,0.652441 0.0424,1.002737 -0.009,0.336705 -0.0389,0.669122 -0.0899,0.997312 -0.0344,0.31732 -0.0708,0.5711 -0.10866,0.7608 -2e-5,0 -4e-5,-1e-5 -6e-5,-1e-5 z"
           id="path5046"
           style="fill:#554400;fill-opacity:1"
           inkscape:original-d="m 126.63775,101.10409 v 0.47692 l -4.002,0.18662 q 0.0622,-0.26957 0.0622,-0.62207 0,-0.5184 -0.14515,-0.66355 -0.14515,-0.16588 -0.64281,-0.16588 -0.70502,0 -1.55518,0.24883 -0.85017,0.24882 -1.49298,0.47692 -0.10367,0.91237 -0.16588,1.82474 -0.0622,0.91238 -0.0622,1.82475 0,1.01605 0,2.0321 0.0207,0.99532 0.0415,2.01137 l -3.56654,0.22809 q -0.10368,-1.32709 -0.20736,-2.63344 -0.10368,-1.32709 -0.18662,-2.65417 -0.10368,-1.76254 -0.26957,-3.50434 -0.16588,-1.762541 -0.33177,-3.545815 1.18194,0.08294 2.34314,0.248829 1.18194,0.14515 2.36387,0.373243 l -0.10368,1.741802 q 0.62208,-0.497657 1.18194,-0.850165 0.5806,-0.373243 1.1612,-0.622072 0.60134,-0.248829 1.26488,-0.352508 0.66355,-0.124414 1.47224,-0.124414 0.53913,0 1.11973,0.124414 0.5806,0.103679 0.99532,0.518394 0.20735,0.228093 0.3525,0.684279 0.14515,0.456186 0.2281,0.97458 0.0829,0.497658 0.10368,0.995313 0.0415,0.47692 0.0415,0.76723 z" />
      </g>
      <path
         style="fill:#554400;fill-opacity:1;fill-rule:evenodd;stroke:#2b2200;stroke-width:0;stroke-linecap:butt;stroke-linejoin:bevel;stroke-dasharray:none;paint-order:fill markers stroke;stop-color:#000000"
         d="m 95.861895,94.592186 -0.598791,-1.577279 0.343749,1.638319 z"
         id="path15381" />
      <path
         style="fill:#554400;fill-opacity:1;fill-rule:evenodd;stroke:#2b2200;stroke-width:0;stroke-linecap:butt;stroke-linejoin:bevel;stroke-dasharray:none;paint-order:fill markers stroke;stop-color:#000000"
         d="m 93.477822,100.92943 -0.748487,-1.164309 0.08871,1.180949 0.443548,0.16079 z"
         id="path16265" />
      <path
         style="fill:#554400;fill-opacity:1;fill-rule:evenodd;stroke:#2b2200;stroke-width:0;stroke-linecap:butt;stroke-linejoin:bevel;stroke-dasharray:none;paint-order:fill markers stroke;stop-color:#000000"
         d="m 87.822579,110.72869 -1.092238,-0.53938 0.986896,-0.95443 0.898187,0.69859 z"
         id="path16267" />
      <path
         style="fill:#554400;fill-opacity:1;fill-rule:evenodd;stroke:#2b2200;stroke-width:0;stroke-linecap:butt;stroke-linejoin:bevel;stroke-dasharray:none;paint-order:fill markers stroke;stop-color:#000000"
         d="m 102.03365,96.60775 -0.20386,-1.450567 -0.81545,1.411362 0.83113,0.196024 z"
         id="path16269" />
      <path
         style="fill:#554400;fill-opacity:1;fill-rule:evenodd;stroke:#2b2200;stroke-width:0;stroke-linecap:butt;stroke-linejoin:bevel;stroke-dasharray:none;paint-order:fill markers stroke;stop-color:#000000"
         d="m 107.51444,96.61559 0.19603,-1.45841 1.70931,0.803696 -0.83897,0.678238 -0.89387,0.0392 z"
         id="path16271" />
      <path
         style="fill:#554400;fill-opacity:1;fill-rule:evenodd;stroke:#2b2200;stroke-width:0;stroke-linecap:butt;stroke-linejoin:bevel;stroke-dasharray:none;paint-order:fill markers stroke;stop-color:#000000"
         d="m 99.016631,105.60332 -0.410282,-0.93145 0.593247,-0.2384 z"
         id="path16273" />
      <path
         style="fill:#554400;fill-opacity:1;fill-rule:evenodd;stroke:#2b2200;stroke-width:0;stroke-linecap:butt;stroke-linejoin:bevel;stroke-dasharray:none;paint-order:fill markers stroke;stop-color:#000000"
         d="m 111.375,107.49983 0.41028,-0.74705 c 0,0 -0.33266,-0.68373 -0.36593,-0.6671 -0.0333,0.0166 -0.61542,0.5988 -0.61542,0.5988 z"
         id="path16275" />
      <path
         style="fill:#554400;fill-opacity:1;fill-rule:evenodd;stroke:#2b2200;stroke-width:0;stroke-linecap:butt;stroke-linejoin:bevel;stroke-dasharray:none;paint-order:fill markers stroke;stop-color:#000000"
         d="m 116.99143,108.05209 0.77621,-0.71156 -0.54057,-0.3622 -0.42969,0.20514 z"
         id="path16277" />
      <path
         style="fill:#554400;fill-opacity:1;fill-rule:evenodd;stroke:#2b2200;stroke-width:0;stroke-linecap:butt;stroke-linejoin:bevel;stroke-dasharray:none;paint-order:fill markers stroke;stop-color:#000000"
         d="m 125.41608,102.63987 1.30847,-1.0562 c 0,0 -0.50177,-0.24118 -0.51286,-0.24118 -0.0111,0 -0.44077,-0.0139 -0.45186,-0.0139 -0.0111,0 -0.32989,0.12475 -0.32989,0.12475 z"
         id="path16279" />
      <path
         style="fill:#554400;fill-opacity:1;fill-rule:evenodd;stroke:#2b2200;stroke-width:0;stroke-linecap:butt;stroke-linejoin:bevel;stroke-dasharray:none;paint-order:fill markers stroke;stop-color:#000000"
         d="m 114.00302,96.219427 0.57662,-1.472637 1.18649,0.904418 -1.03125,0.925909 z"
         id="path16281" />
      <g
         aria-label="Fur"
         id="text1300"
         style="font-size:21.2334px;line-height:0.8;font-family:Slackey;-inkscape-font-specification:Slackey;text-align:center;text-anchor:middle;fill:url(#linearGradient22184);fill-opacity:1;fill-rule:evenodd;stroke-width:1.505;stroke-linecap:round;stroke-linejoin:round;paint-order:stroke fill markers;stop-color:#000000;stroke-dasharray:none"
         inkscape:path-effect="#path-effect4306"
         class="UnoptimicedTransforms">
        <path
           d="m 96.039431,96.968748 c -1.251034,0.187785 -2.483911,0.388013 -3.700292,0.600334 -1.201853,0.210281 -2.409226,0.483747 -3.615629,0.822801 0.167271,0.571586 0.333207,1.143453 0.497811,1.715597 1.170546,-0.141034 2.34135,-0.2541 3.511857,-0.340592 0.290664,0.654812 0.576212,1.311072 0.856703,1.968742 -0.594984,0.21718 -1.195844,0.41493 -1.804418,0.59424 -0.59718,0.16357 -1.187113,0.36176 -1.767573,0.5944 0.320024,0.99202 0.594155,1.99284 0.827457,3.0008 0.230905,0.99453 0.435047,2.00068 0.615917,3.0182 -1.600373,0.3516 -3.178813,0.76542 -4.731644,1.24604 -0.345768,-1.58228 -0.706825,-3.14453 -1.089561,-4.68796 -0.386051,-1.55632 -0.7794,-3.11822 -1.181305,-4.68468 l -0.458616,-1.787499 -1.035755,-4.03695 c 0.869788,-0.231276 1.726842,-0.444124 2.569613,-0.640142 0.855144,-0.212812 1.722561,-0.399896 2.600941,-0.560752 1.181288,-0.216327 2.368681,-0.380025 3.558477,-0.491704 1.187903,-0.125318 2.383002,-0.220175 3.584458,-0.284715 0.155672,0.649024 0.30239,1.30598 0.440641,1.970843 0.151738,0.649727 0.257686,1.310874 0.320918,1.982997 z"
           id="path4299"
           style="fill:url(#linearGradient22184);fill-opacity:1;stroke-width:1.505;stroke-dasharray:none"
           inkscape:original-d="m 96.591659,98.926832 q -1.80401,0.103679 -3.566548,0.165886 -1.741802,0.06221 -3.525076,0.228093 l 0.165886,1.783279 3.442133,0.22809 0.580601,2.07357 q -0.933109,0.20736 -1.886953,0.33177 -0.933108,0.10368 -1.866217,0.2903 0.207358,1.55519 0.290301,3.11037 0.08294,1.53444 0.08294,3.08962 l -5.4535,0.18662 q 0.103678,-2.42608 0.124414,-4.81069 0.02074,-2.40534 0.02074,-4.83143 v -1.845478 -4.167884 q 1.202673,-0.02074 2.363874,-0.04147 1.181938,-0.04147 2.384611,-0.04147 1.617388,0 3.234776,0.08294 1.617388,0.06221 3.255511,0.14515 0.124415,0.995316 0.228093,2.011367 0.124415,0.995316 0.124414,2.011367 z" />
        <path
           d="m 111.79116,106.75272 c -1.11191,-0.0414 -2.22088,-0.0646 -3.32591,-0.0684 -0.0471,-0.70198 -0.0959,-1.40386 -0.14648,-2.10566 -0.26867,0.34836 -0.58539,0.64008 -0.94985,0.87658 -0.35132,0.23699 -0.73105,0.4263 -1.14007,0.56916 -0.39595,0.14316 -0.80831,0.24691 -1.23848,0.31215 -0.41706,0.0515 -0.82619,0.0784 -1.22863,0.0805 -0.3122,0.002 -0.70029,-0.0223 -1.16885,-0.0685 -0.45509,-0.0464 -0.92357,-0.10956 -1.40706,-0.18855 -0.47096,-0.0932 -0.9118,-0.21097 -1.323715,-0.35472 -0.411923,-0.14377 -0.71689,-0.31772 -0.914492,-0.52605 -0.154564,-0.15565 -0.284033,-0.40949 -0.3884,-0.76139 -0.09217,-0.36659 -0.166993,-0.75522 -0.223646,-1.16564 -0.05667,-0.41055 -0.09935,-0.8081 -0.12747,-1.19305 -0.02811,-0.3849 -0.0507,-0.69419 -0.06777,-0.92788 -0.07531,-1.0311 -0.108391,-2.051117 -0.09473,-3.061053 0.01366,-1.009872 0.06645,-2.015396 0.162012,-3.016916 0.409934,-0.06964 0.851487,-0.117915 1.32355,-0.143474 0.383583,-0.02077 0.768587,-0.01158 1.153987,0.0276 0.38487,0.0254 0.76972,0.06699 1.1541,0.124764 0.002,0.06934 0.0147,0.26847 0.0383,0.599531 0.0236,0.330707 0.0487,0.72352 0.0754,1.17843 0.041,0.454514 0.0825,0.943555 0.12435,1.467146 0.0416,0.509785 0.0817,0.985116 0.12068,1.425996 0.0529,0.440525 0.10359,0.819015 0.15242,1.135465 0.0623,0.30234 0.1208,0.46675 0.17633,0.4932 0.20856,0.1199 0.43569,0.18492 0.68252,0.19547 0.24685,0.0105 0.48667,0.0153 0.71971,0.0141 0.16649,-8.6e-4 0.41606,-0.009 0.76103,-0.0214 0.35675,-0.0265 0.7208,-0.0578 1.09245,-0.0937 0.37197,-0.0497 0.71696,-0.10457 1.03568,-0.16557 0.31905,-0.0748 0.53573,-0.16455 0.64996,-0.27169 0.0428,-0.0401 0.0747,-0.17059 0.0958,-0.39135 0.035,-0.22029 0.0571,-0.46186 0.0658,-0.72454 0.0227,-0.262297 0.0379,-0.503952 0.0453,-0.725227 0.022,-0.234769 0.0337,-0.372461 0.0351,-0.414117 0.021,-0.622248 0.0276,-1.237967 0.019,-1.847304 2.3e-4,0.01596 -0.0268,-1.864596 -0.0265,-1.848632 1.42513,-0.01884 2.85057,-0.008 4.27478,0.03077 0.0176,0.973481 0.0255,1.946519 0.0245,2.918942 -7e-5,0.958662 0.0188,1.92573 0.0549,2.9014 0.017,0.32099 0.0123,0.64723 -0.0135,0.97879 2e-5,-6.8e-4 -0.0367,0.99858 -0.0367,0.9979 -0.0215,0.62379 -0.0571,1.2465 -0.10605,1.86813 2.4e-4,-0.004 -0.10939,1.89302 -0.10915,1.88883 0,0 -10e-6,0 -10e-6,0 z"
           id="path4301"
           style="fill:url(#linearGradient22184);fill-opacity:1;stroke-width:1.505;stroke-dasharray:none"
           inkscape:original-d="m 112.39229,108.79705 -3.50434,0.14515 -0.24883,-2.09431 q -0.39397,0.53913 -0.95384,0.91237 -0.53913,0.37324 -1.18194,0.60134 -0.62207,0.22809 -1.30635,0.33177 -0.66354,0.0829 -1.30635,0.0829 -0.49766,0 -1.24414,-0.0829 -0.72576,-0.0829 -1.49298,-0.2281 -0.74648,-0.16588 -1.389293,-0.41471 -0.642808,-0.24883 -0.933108,-0.5806 -0.228093,-0.24883 -0.352508,-0.78796 -0.103679,-0.55987 -0.14515,-1.18194 -0.04147,-0.62207 -0.04147,-1.20267 0,-0.5806 0,-0.93311 0,-1.55518 0.124415,-3.06889 0.124414,-1.513708 0.352507,-3.006681 0.580601,-0.06221 1.244147,-0.06221 0.53913,0 1.07825,0.08294 0.53913,0.06221 1.07826,0.165886 0,0.103679 0.0207,0.601337 0.0207,0.497658 0.0415,1.181937 0.0415,0.68428 0.0829,1.472241 0.0415,0.76722 0.083,1.43077 0.0622,0.66354 0.12441,1.14046 0.0829,0.45619 0.16589,0.49766 0.31103,0.18662 0.68428,0.20736 0.37324,0.0207 0.72575,0.0207 0.24883,0 0.76722,-0.0207 0.53913,-0.0415 1.09899,-0.10368 0.55987,-0.0829 1.03679,-0.18662 0.47692,-0.12442 0.64281,-0.2903 0.0622,-0.0622 0.0829,-0.39398 0.0415,-0.33178 0.0415,-0.72576 0.0207,-0.39398 0.0207,-0.72575 0.0207,-0.35251 0.0207,-0.41472 0,-0.93311 -0.0415,-1.845474 -0.0415,-0.912372 -0.0829,-1.845481 l 4.02273,-0.186621 q 0.12442,1.451501 0.2281,2.902996 0.10368,1.43077 0.26956,2.88227 0.0622,0.47692 0.0622,0.97458 0.0207,0.49766 0.0415,0.99533 0.0415,0.93309 0.0415,1.8662 0.0207,0.93311 0.0415,1.88696 z" />
        <path
           d="m 126.82125,101.11211 -0.0935,0.46771 c -1.34064,-0.20542 -2.68578,-0.39138 -4.03389,-0.55611 0.0716,-0.17055 0.12714,-0.37196 0.16645,-0.60416 0.0578,-0.34157 0.046,-0.568356 -0.036,-0.680634 -0.0796,-0.125861 -0.28783,-0.217311 -0.6247,-0.272441 -0.47713,-0.07808 -1.01778,-0.07952 -1.61848,-0.0017 -0.60038,0.07775 -1.12914,0.163768 -1.58447,0.254926 -0.1533,0.5948 -0.29153,1.19174 -0.41531,1.79067 -0.12378,0.59895 -0.2262,1.20081 -0.3082,1.80544 l -0.27394,2.02 c 4.8e-4,-0.004 -0.23219,2.00897 -0.2317,2.00473 -1.14073,-0.0776 -2.27941,-0.13856 -3.41489,-0.18164 0.0267,-0.88949 0.0509,-1.77215 0.0729,-2.64801 0.0234,-0.88962 0.0518,-1.77869 0.0857,-2.66707 0.0494,-1.17947 0.0752,-2.354258 0.0756,-3.524351 0.002,-1.183883 4.4e-4,-2.374789 -0.004,-3.572658 0.83102,0.133996 1.64909,0.304057 2.45273,0.50914 0.81986,0.19301 1.63243,0.422142 2.43639,0.686779 -0.11534,0.572034 -0.23019,1.144158 -0.34454,1.716371 0.47298,-0.271254 0.92114,-0.494679 1.34219,-0.670971 0.43748,-0.187939 0.87078,-0.332363 1.29867,-0.433485 0.44226,-0.09886 0.89957,-0.144029 1.37047,-0.135114 0.47313,-0.0048 0.98991,0.04259 1.54829,0.143424 0.37226,0.06722 0.75101,0.179514 1.13507,0.336933 0.38664,0.143827 0.69576,0.380406 0.92635,0.707936 0.11268,0.17738 0.18899,0.425236 0.22881,0.743467 0.0398,0.318231 0.0538,0.652441 0.0424,1.002737 -0.009,0.336705 -0.0389,0.669122 -0.0899,0.997312 -0.0344,0.31732 -0.0708,0.5711 -0.10866,0.7608 -2e-5,0 -4e-5,-1e-5 -6e-5,-1e-5 z"
           id="path4303"
           style="fill:url(#linearGradient22184);fill-opacity:1;stroke-width:1.505;stroke-dasharray:none"
           inkscape:original-d="m 126.63775,101.10409 v 0.47692 l -4.002,0.18662 q 0.0622,-0.26957 0.0622,-0.62207 0,-0.5184 -0.14515,-0.66355 -0.14515,-0.16588 -0.64281,-0.16588 -0.70502,0 -1.55518,0.24883 -0.85017,0.24882 -1.49298,0.47692 -0.10367,0.91237 -0.16588,1.82474 -0.0622,0.91238 -0.0622,1.82475 0,1.01605 0,2.0321 0.0207,0.99532 0.0415,2.01137 l -3.56654,0.22809 q -0.10368,-1.32709 -0.20736,-2.63344 -0.10368,-1.32709 -0.18662,-2.65417 -0.10368,-1.76254 -0.26957,-3.50434 -0.16588,-1.762541 -0.33177,-3.545815 1.18194,0.08294 2.34314,0.248829 1.18194,0.14515 2.36387,0.373243 l -0.10368,1.741802 q 0.62208,-0.497657 1.18194,-0.850165 0.5806,-0.373243 1.1612,-0.622072 0.60134,-0.248829 1.26488,-0.352508 0.66355,-0.124414 1.47224,-0.124414 0.53913,0 1.11973,0.124414 0.5806,0.103679 0.99532,0.518394 0.20735,0.228093 0.3525,0.684279 0.14515,0.456186 0.2281,0.97458 0.0829,0.497658 0.10368,0.995313 0.0415,0.47692 0.0415,0.76723 z" />
      </g>
    </g>
    <text
       xml:space="preserve"
       style="font-size:14.713px;line-height:0.5;font-family:Slackey;-inkscape-font-specification:Slackey;text-align:center;text-anchor:middle;fill:#000000;fill-opacity:1;fill-rule:evenodd;stroke:#806600;stroke-width:0.0104265;stroke-linecap:butt;stroke-linejoin:bevel;stroke-dasharray:none;paint-order:fill markers stroke;stop-color:#000000"
       x="121.84287"
       y="105.91859"
       id="text22592"
       transform="scale(0.85985232,1.1629904)"><tspan
         sodipodi:role="line"
         id="tspan22590"
         style="stroke-width:0.0104265"
         x="121.84287"
         y="105.91859">Force</tspan></text>
  </g>
</svg>
